<?xml version="1.0" encoding="UTF-8"?>
<svg width="526" height="184" viewBox="0 0 526 184" xmlns="http://www.w3.org/2000/svg">
    <path id="Path" fill="#DEC35F" stroke="none" d="M 55.892101 11.763702 C 55.962799 11.601898 56.056099 11.474899 56.202301 11.375702 C 59.830101 8.913376 112.546997 -24.268204 237.425995 35.610199 C 355.384003 92.170898 474.328003 25.980606 495.700989 12.747406 C 496.410004 12.308899 497.596985 13.437302 497.21701 14.178192 L 475.734985 55.994202 C 475.395996 56.653099 475.859985 57.437599 476.600006 57.4478 C 482.187012 57.525398 501.667999 57.749199 523.482971 57.459595 C 524.388 57.447601 524.901978 58.477402 524.244019 59.098495 C 509.591003 72.924202 406.186005 167.697998 325 167.697998 C 237.425995 167.697998 190 147.242996 134 131.774002 C 78.856903 116.542 52.317902 111.431999 18.5783 117.033997 C 17.850599 117.154999 17.234699 116.478996 17.436701 115.769997 L 30.5 69.898903 Z"/>
    <g id="Group">
        <path id="path1" fill="#ffffff" stroke="#ffffff" stroke-width="0.25" d="M 83.681 33.113403 C 82.352203 40.627197 79.801697 53.534302 74.4403 70.213898 C 63.304298 96.816498 82.296303 92.477402 87.734596 81.424797 C 90.958 75.321602 94.273201 68.698799 94.273201 68.698799 L 111.341003 75.242302 C 111.341003 75.242302 109.967003 83.014702 108.561996 89.445198 C 103.199997 106.125 118.831001 104.122002 123.153999 91.800201 C 125.078003 85.463501 134.044998 59.005798 136.518005 45.014404 C 140.246002 36.060898 127.486 27.886597 121.712997 42.354202 C 118.626999 47.680099 113.615997 59.343903 113.615997 59.343903 C 113.615997 59.343903 99.527802 54.138596 99.3601 53.5737 C 98.809998 52.139099 100.536003 48.439102 100.612 44.977692 C 99.753899 21.031998 85.467499 23.008102 83.681 33.113403 Z"/>
        <path id="path2" fill="#ffffff" stroke="#ffffff" stroke-width="0.25" d="M 158.882996 51.7621 C 163.227005 43.114105 168.214996 41.663696 171.923996 42.0578 C 173.524002 42.190201 175.699997 45.444595 177.363998 48.570709 C 182.811996 69.158401 173.048996 107.023003 171.322998 109.566002 C 165.380997 119.164001 154.955002 117.348999 158.914993 106.980003 C 160.764999 100.681 162.746002 94.954903 162.746002 94.954903 L 149.25 93.447899 C 138.645004 114.050003 129.110001 105.424004 134.604996 96.523903 C 140.483002 86.097603 153.005997 63.271301 158.882996 51.7621 Z M 154.421997 78.242104 L 167.725998 80.512802 C 167.725998 80.512802 171.421005 57.086304 167.266006 59.557701 Z"/>
        <path id="path3" fill="#ffffff" stroke="#ffffff" stroke-width="0.25" d="M 227.585999 72.518799 C 229.347 67.557098 225.686005 56.337204 212.895996 58.208298 C 194.371002 58.341797 187.962006 90.800003 187.962006 90.800003 C 187.962006 90.800003 184.882996 106.519997 189.742004 117.234001 C 194.158005 127.564003 204.869995 127.597 206.949997 127.859001 C 219.108994 124.203003 214.945007 116.101997 212.865997 115.841003 C 210.218994 115.706001 206.628006 116.139999 203.727997 113.775002 C 198.811005 109.811996 199.686996 99.752701 200.755005 94.3424 C 203.270004 85.2435 208.804993 67.174797 217.630005 71.5961 C 222.925995 78.363701 226.641998 75.254898 227.585999 72.518799 Z"/>
        <path id="path4" fill="#ffffff" stroke="#ffffff" stroke-width="0.25" d="M 239.768997 71.684601 C 236.511993 81.631699 240.595993 92.108398 232.451004 111.043999 C 230.509003 115.668999 225.746002 124.151001 225.182007 125.355003 C 220.669998 133.903 229.832001 138.940994 239.923996 124.005997 C 242.369003 120.587997 245.061996 111.845001 245.061996 111.845001 L 249.453003 111.351997 C 249.453003 111.351997 253.289001 128.233002 254.171997 135.464996 C 255.115997 142.444 267.477997 146.414001 267.65799 132.716995 C 267.21701 128.022003 265.580994 121.675003 262.502991 113.612 C 262.502991 113.612 260.492004 107.707001 258.546997 106.940002 C 258.546997 106.940002 272.341003 93.221901 273.656006 87.897903 C 275.03299 82.321899 272.520996 78.445396 261.734985 87.5438 C 250.949997 96.643303 249.697006 99.556198 249.697006 99.556198 C 249.697006 99.556198 252.261993 88.085098 252.005997 79.396103 C 252.942993 70.204102 242.587006 63.512497 239.768997 71.684601 Z"/>
        <path id="path5" fill="#ffffff" stroke="#ffffff" stroke-width="0.25" d="M 309.23999 88.968498 C 304.612 93.556297 301.700012 102.168999 302.024994 115.199997 C 302.670013 134.651001 310.729004 145.826004 324.489014 143.600998 C 338.248993 141.375 335.009003 131.447006 333.740997 131.117996 C 332.72699 130.854996 332.471985 129.688004 326.829987 131.809998 C 321.186005 133.931 316.937012 131.453995 313.380005 122.820999 C 311.029999 116.978996 309.756012 105.629997 314.001007 99.291 C 315.269012 97.414597 316.472992 96.8993 317.106995 96.512199 C 319.643005 94.965202 322.243011 96.464401 322.687988 96.854698 C 329.794006 101.998001 331.184998 96.298103 328.644989 91.233002 C 323.631989 84.151299 316.972992 82.704399 309.23999 88.968498 Z"/>
        <path id="path6" fill="#ffffff" stroke="#ffffff" stroke-width="0.25" d="M 340 89.262199 C 339.933014 81.878899 347.556 76.187202 350.235992 92.696999 C 353.54599 103.364998 352.70401 123.992996 354.291992 125.903 C 355.880005 127.813004 367.701996 125.147003 370.903015 124.07 C 374.102997 122.992996 380.001007 124.406998 378.667999 127.612999 C 377.588989 130.884003 374.537994 131.195007 373.903015 131.578995 C 373.266998 131.962006 346.546997 139.882996 345.554993 134.610001 C 344.562988 129.335999 344.5 126.908997 343.5 117.928001 C 342.5 108.945999 340.067993 96.646599 340 89.262199 Z"/>
        <path id="path7" fill="#ffffff" stroke="#ffffff" stroke-width="0.25" d="M 372.042999 82.653603 C 371.463013 77.315903 376.906006 74.054703 380.112 79.785896 C 382.546997 84.228699 385.376007 103.524002 389.35199 111.637001 C 391.532013 114.921997 396.015015 115.514 398.127991 112.5 C 400.622986 107.943001 398.822998 96.558899 397.281006 87.425301 C 396.188995 83.050301 394.931 79.7061 394.993988 77.2631 C 395.950012 69.037201 402.548004 70.986397 405.627014 79.417198 C 408.192993 88.811699 410.867004 103.988998 409.526001 109.385002 C 408.247986 114.523003 406.906006 121.012001 400.246002 122.598999 C 398.516998 122.980003 384.108002 125.056 379.040009 109.290001 C 374.161987 92.753197 372.622986 87.991302 372.042999 82.653603 Z"/>
        <path id="path8" fill="#ffffff" stroke="#ffffff" stroke-width="0.25" d="M 417.227997 65.032402 C 426.088989 59.675903 432.737 57.838196 437.929993 59.7136 C 440.970001 61.581406 442.936005 66.714302 442.115997 71.133598 C 441.169006 74.9758 439.587006 78.110802 439.587006 78.110802 C 444.842987 78.640602 448.691986 83.886703 449.691986 90.752701 C 450.691986 97.618797 444.223999 104.081001 432.196014 108.081001 C 428.144012 109.222 423.838989 109.208 423.64801 107.797997 C 423.519012 105.041 413.307007 72.197601 413.307007 72.197601 C 412.988007 70.209396 411.911011 68.027702 417.227997 65.032402 Z M 420.903015 70.875702 L 425.34201 81.2715 C 425.34201 81.2715 436.104004 76.9468 434.834015 71.1745 C 433.565002 65.403198 426.791992 68.8423 420.903015 70.875702 Z M 426.865997 89.286903 C 426.865997 89.286903 429.911987 102.049004 429.786011 101.472 C 429.721008 100.639 445.476013 97.500999 442.115997 89.286903 C 438.753998 81.073799 426.865997 89.286903 426.865997 89.286903 Z"/>
    </g>
    <path id="path9" fill="#d98b51" stroke="none" d="M 56.274101 6.966064 C 56.274101 6.966064 57.310699 5.773483 59.269798 6.021973 C 61.228901 6.270477 60.745602 8.531052 60.007702 10.003906 C 59.269798 11.476807 40.682899 49.587997 27.231199 92.576401 C 13.7796 135.565002 14.8081 181.5 14.8081 184 L 0.009837 184 C -0.191864 179.5 2.61166 136.251007 17.4214 92.576401 C 32.231201 48.901398 54.311401 8.484009 56.274101 6.966064 Z"/>
</svg>
