<svg preserveAspectRatio="none" width="100%" height="100%" overflow="visible" style="display: block;" viewBox="0 0 247 166" fill="none" xmlns="http://www.w3.org/2000/svg">
<g id="Subtract" filter="url(#filter0_di_0_15)">
<path d="M233.074 0C238.352 0.000191143 242.727 4.05487 243.066 9.32129C244.089 25.1753 246 57.9176 246 81.0352C246 104.066 244.103 136.08 243.078 151.692C242.733 156.952 238.36 161 233.089 161H14.7579C9.54821 161 5.20571 157.045 4.7862 151.853C3.49103 135.821 1.01469 102.147 1.00006 78.8955C0.98551 55.7327 3.42077 24.3359 4.73639 9.07617C5.18166 3.9141 9.50921 9.80268e-06 14.6905 0H233.074ZM22.1075 9.49902C16.9468 9.49902 12.6285 13.3924 12.1651 18.5322C10.9142 32.4075 8.73674 59.4655 8.75006 79.5508C8.76346 99.7278 10.9817 128.746 12.2159 143.339C12.6535 148.511 16.9874 152.452 22.1778 152.452H225.814C231.069 152.452 235.434 148.419 235.794 143.176C236.769 128.98 238.465 101.414 238.465 81.4502C238.465 61.408 236.756 33.2185 235.783 18.7959C235.429 13.5459 231.06 9.49902 225.798 9.49902H22.1075Z" fill="var(--fill-0, #23312B)"/>
</g>
<defs>
<filter id="filter0_di_0_15" x="2.31594e-08" y="0" width="247" height="166" filterUnits="userSpaceOnUse" color-interpolation-filters="sRGB">
<feFlood flood-opacity="0" result="BackgroundImageFix"/>
<feColorMatrix in="SourceAlpha" type="matrix" values="0 0 0 0 0 0 0 0 0 0 0 0 0 0 0 0 0 0 127 0" result="hardAlpha"/>
<feOffset dy="4"/>
<feGaussianBlur stdDeviation="0.5"/>
<feComposite in2="hardAlpha" operator="out"/>
<feColorMatrix type="matrix" values="0 0 0 0 0 0 0 0 0 0 0 0 0 0 0 0 0 0 0.25 0"/>
<feBlend mode="normal" in2="BackgroundImageFix" result="effect1_dropShadow_0_15"/>
<feBlend mode="normal" in="SourceGraphic" in2="effect1_dropShadow_0_15" result="shape"/>
<feColorMatrix in="SourceAlpha" type="matrix" values="0 0 0 0 0 0 0 0 0 0 0 0 0 0 0 0 0 0 127 0" result="hardAlpha"/>
<feOffset dx="-0.503165" dy="1.00633"/>
<feGaussianBlur stdDeviation="0.754747"/>
<feComposite in2="hardAlpha" operator="arithmetic" k2="-1" k3="1"/>
<feColorMatrix type="matrix" values="0 0 0 0 0.854902 0 0 0 0 0.984314 0 0 0 0 0.670588 0 0 0 1 0"/>
<feBlend mode="normal" in2="shape" result="effect2_innerShadow_0_15"/>
</filter>
</defs>
</svg>
