<svg preserveAspectRatio="none" width="100%" height="100%" overflow="visible" style="display: block;" viewBox="0 0 301.76 204" fill="none" xmlns="http://www.w3.org/2000/svg">
<g id="Subtract" filter="url(#filter0_di_0_8)">
<path d="M284.673 0C291.281 0.000190585 296.759 5.08161 297.18 11.6768C298.433 31.3306 300.76 71.6626 300.76 100.161C300.76 128.552 298.451 167.985 297.194 187.339C296.767 193.926 291.292 199 284.691 199H18.1016C11.577 199 6.14079 194.045 5.62117 187.541C4.03324 167.665 1.01791 126.182 1.00008 97.5166C0.982322 68.9655 3.94595 30.2937 5.55867 11.375C6.10987 4.90895 11.5282 0.000218222 18.0177 0H284.673ZM27.0938 11.7402C20.6299 11.7402 15.2234 16.6173 14.6495 23.0557C13.117 40.2503 10.4682 73.5724 10.4845 98.3262C10.5008 123.192 13.1994 158.921 14.712 177.01C15.2538 183.488 20.6809 188.434 27.1817 188.434H275.792C282.373 188.434 287.839 183.384 288.285 176.818C289.479 159.228 291.542 125.28 291.542 100.674C291.542 75.9705 289.463 41.2534 288.271 23.3818C287.832 16.8071 282.363 11.7404 275.774 11.7402H27.0938Z" fill="var(--fill-0, #23312B)"/>
</g>
<defs>
<filter id="filter0_di_0_8" x="-4.69154e-08" y="0" width="301.76" height="204" filterUnits="userSpaceOnUse" color-interpolation-filters="sRGB">
<feFlood flood-opacity="0" result="BackgroundImageFix"/>
<feColorMatrix in="SourceAlpha" type="matrix" values="0 0 0 0 0 0 0 0 0 0 0 0 0 0 0 0 0 0 127 0" result="hardAlpha"/>
<feOffset dy="4"/>
<feGaussianBlur stdDeviation="0.5"/>
<feComposite in2="hardAlpha" operator="out"/>
<feColorMatrix type="matrix" values="0 0 0 0 0 0 0 0 0 0 0 0 0 0 0 0 0 0 0.25 0"/>
<feBlend mode="normal" in2="BackgroundImageFix" result="effect1_dropShadow_0_8"/>
<feBlend mode="normal" in="SourceGraphic" in2="effect1_dropShadow_0_8" result="shape"/>
<feColorMatrix in="SourceAlpha" type="matrix" values="0 0 0 0 0 0 0 0 0 0 0 0 0 0 0 0 0 0 127 0" result="hardAlpha"/>
<feOffset dx="-0.629747" dy="1.25949"/>
<feGaussianBlur stdDeviation="0.94462"/>
<feComposite in2="hardAlpha" operator="arithmetic" k2="-1" k3="1"/>
<feColorMatrix type="matrix" values="0 0 0 0 0.862745 0 0 0 0 0.988235 0 0 0 0 0.678431 0 0 0 1 0"/>
<feBlend mode="normal" in2="shape" result="effect2_innerShadow_0_8"/>
</filter>
</defs>
</svg>
