<svg preserveAspectRatio="none" width="100%" height="100%" overflow="visible" style="display: block;" viewBox="0 0 524 332.945" fill="none" xmlns="http://www.w3.org/2000/svg">
<g id="Subtract" filter="url(#filter0_di_0_4)">
<path d="M499.692 0C508.558 0 515.917 6.79377 516.522 15.6396C518.629 46.4595 523 116.281 523 165.062C523 213.683 518.657 281.958 516.542 312.324C515.927 321.159 508.574 327.945 499.718 327.945H26.1408C17.3936 327.945 10.0948 321.337 9.34877 312.622C6.68547 281.509 1.03237 209.731 1.00014 160.704C0.967995 111.798 6.54472 44.8732 9.25893 15.2139C10.0515 6.55252 17.3251 0.000131289 26.0226 0H499.692ZM41.8449 19.3477C33.1839 19.3479 25.929 25.8482 25.1027 34.4697C22.5068 61.5531 17.4852 119.48 17.5148 162.038C17.5444 204.71 22.6383 266.793 25.1915 295.249C25.9702 303.928 33.2563 310.532 41.9699 310.532H484.205C493.033 310.532 500.372 303.788 501.015 294.983C503.038 267.252 506.947 208.204 506.947 165.907C506.947 123.467 503.011 63.0921 500.994 34.9316C500.363 26.115 493.017 19.3477 484.178 19.3477H41.8449Z" fill="var(--fill-0, #23312B)"/>
</g>
<defs>
<filter id="filter0_di_0_4" x="4.43542e-08" y="0" width="524" height="332.945" filterUnits="userSpaceOnUse" color-interpolation-filters="sRGB">
<feFlood flood-opacity="0" result="BackgroundImageFix"/>
<feColorMatrix in="SourceAlpha" type="matrix" values="0 0 0 0 0 0 0 0 0 0 0 0 0 0 0 0 0 0 127 0" result="hardAlpha"/>
<feOffset dy="4"/>
<feGaussianBlur stdDeviation="0.5"/>
<feComposite in2="hardAlpha" operator="out"/>
<feColorMatrix type="matrix" values="0 0 0 0 0 0 0 0 0 0 0 0 0 0 0 0 0 0 0.25 0"/>
<feBlend mode="normal" in2="BackgroundImageFix" result="effect1_dropShadow_0_4"/>
<feBlend mode="normal" in="SourceGraphic" in2="effect1_dropShadow_0_4" result="shape"/>
<feColorMatrix in="SourceAlpha" type="matrix" values="0 0 0 0 0 0 0 0 0 0 0 0 0 0 0 0 0 0 127 0" result="hardAlpha"/>
<feOffset dx="-0.847403" dy="1.69481"/>
<feGaussianBlur stdDeviation="1.2711"/>
<feComposite in2="hardAlpha" operator="arithmetic" k2="-1" k3="1"/>
<feColorMatrix type="matrix" values="0 0 0 0 0.862745 0 0 0 0 0.988235 0 0 0 0 0.682353 0 0 0 1 0"/>
<feBlend mode="normal" in2="shape" result="effect2_innerShadow_0_4"/>
</filter>
</defs>
</svg>
